STARTFONT 2.1
FONT -DEC-Present Bullets-Medium-R-Normal--12-120-100-100-P-154-DEC-FontSpecific
SIZE 12 100 100
FONTBOUNDINGBOX 21 14 0 -1

STARTPROPERTIES 10
X_HEIGHT 10
COPYRIGHT "Copyright 1990,  Digital Equipment Corporation Created by Loree Nelson, The Artis Consultancy"
POINT_SIZE 120
WEIGHT 10
RESOLUTION_X 100
RESOLUTION_Y 100
QUAD_WIDTH 14
DEFAULT_CHAR 0
FONT_DESCENT 2
FONT_ASCENT 13
ENDPROPERTIES

CHARS 59

STARTCHAR space
ENCODING 32
SWIDTH 250 0
DWIDTH 4 0
BBX 1 1 0 0
BITMAP
00
ENDCHAR

STARTCHAR A
ENCODING 65
SWIDTH 704 0
DWIDTH 11 0
BBX 8 10 0 2
BITMAP
03
03
06
FF
85
BD
B9
99
99
FF
ENDCHAR

STARTCHAR B
ENCODING 66
SWIDTH 616 0
DWIDTH 10 0
BBX 8 12 1 0
BITMAP
03
07
06
0E
0C
18
98
90
F0
F0
60
60
ENDCHAR

STARTCHAR C
ENCODING 67
SWIDTH 740 0
DWIDTH 12 0
BBX 8 11 0 0
BITMAP
C0
60
30
0C
06
03
06
0C
30
60
C0
ENDCHAR

STARTCHAR D
ENCODING 68
SWIDTH 953 0
DWIDTH 15 0
BBX 13 12 1 0
BITMAP
0200
0200
0500
0480
F8F8
4010
2020
1040
1040
1740
38E0
2020
ENDCHAR

STARTCHAR E
ENCODING 69
SWIDTH 1048 0
DWIDTH 17 0
BBX 13 12 1 0
BITMAP
0200
0200
0700
0700
FFF8
7FF0
3FE0
1FC0
1FC0
1FC0
38E0
2020
ENDCHAR

STARTCHAR F
ENCODING 70
SWIDTH 732 0
DWIDTH 12 0
BBX 9 10 0 1
BITMAP
0800
0C00
FE00
FF00
FF80
FF80
FF00
FE00
0C00
0800
ENDCHAR

STARTCHAR G
ENCODING 71
SWIDTH 732 0
DWIDTH 12 0
BBX 9 10 0 1
BITMAP
0800
0C00
FA00
8100
8080
8080
8100
FA00
0C00
0800
ENDCHAR

STARTCHAR H
ENCODING 72
SWIDTH 1000 0
DWIDTH 16 0
BBX 16 2 0 0
BITMAP
00FF
FFFF
ENDCHAR

STARTCHAR I
ENCODING 73
SWIDTH 787 0
DWIDTH 13 0
BBX 8 11 1 0
BITMAP
E0
F8
3C
0E
0E
07
07
03
03
03
03
ENDCHAR

STARTCHAR J
ENCODING 74
SWIDTH 756 0
DWIDTH 12 0
BBX 7 12 1 -1
BITMAP
80
C2
46
2C
38
18
38
28
64
C4
86
02
ENDCHAR

STARTCHAR K
ENCODING 75
SWIDTH 935 0
DWIDTH 15 0
BBX 10 12 1 0
BITMAP
C0C0
6180
6180
3300
1E00
0C00
0C00
1E00
3300
6180
6180
C0C0
ENDCHAR

STARTCHAR L
ENCODING 76
SWIDTH 1000 0
DWIDTH 16 0
BBX 13 11 1 0
BITMAP
7000
C800
9400
AA00
6580
1240
09A0
0650
0138
00B8
0078
ENDCHAR

STARTCHAR M
ENCODING 77
SWIDTH 1440 0
DWIDTH 23 0
BBX 20 10 0 -1
BITMAP
01F800
0FFF00
3FFFC0
FFFFF0
FF0FF0
EE07B0
5F0FC0
3FFFE0
3FFFE0
3FFFE0
ENDCHAR

STARTCHAR N
ENCODING 78
SWIDTH 1292 0
DWIDTH 21 0
BBX 14 10 1 0
BITMAP
7FF8
FFFC
FFFC
FFFC
3FF0
3FF0
7AB8
7FF8
7FF8
3870
ENDCHAR

STARTCHAR O
ENCODING 79
SWIDTH 1488 0
DWIDTH 24 0
BBX 21 10 0 0
BITMAP
007FF8
3F8038
2C07E0
4C2E00
483A00
9E1C00
9DEC00
F81C00
D00600
E00000
ENDCHAR

STARTCHAR P
ENCODING 80
SWIDTH 1292 0
DWIDTH 21 0
BBX 17 6 0 2
BITMAP
0FFF80
F0BF00
A17000
BEF800
A0F800
FFF000
ENDCHAR

STARTCHAR Q
ENCODING 81
SWIDTH 844 0
DWIDTH 14 0
BBX 9 11 1 0
BITMAP
2000
3000
3000
1800
9800
FF80
9800
1800
3000
3000
2000
ENDCHAR

STARTCHAR R
ENCODING 82
SWIDTH 1195 0
DWIDTH 19 0
BBX 12 10 0 0
BITMAP
3FC0
4020
4020
7FE0
FFF0
BFD0
FFF0
FFF0
4020
4020
ENDCHAR

STARTCHAR S
ENCODING 83
SWIDTH 1376 0
DWIDTH 22 0
BBX 20 10 0 0
BITMAP
FFFFF0
C00030
B000D0
880110
870E10
84F210
880110
900090
A00050
FFFFF0
ENDCHAR

STARTCHAR T
ENCODING 84
SWIDTH 1098 0
DWIDTH 18 0
BBX 13 13 0 -1
BITMAP
28A0
9048
78F0
3FE0
1860
3220
3210
3210
3110
1020
1860
1FE0
1040
ENDCHAR

STARTCHAR U
ENCODING 85
SWIDTH 992 0
DWIDTH 16 0
BBX 13 13 0 0
BITMAP
0200
4210
2020
0F80
C898
1040
1540
1240
0A80
0A80
0F80
0700
0700
ENDCHAR

STARTCHAR V
ENCODING 86
SWIDTH 1175 0
DWIDTH 19 0
BBX 14 11 0 0
BITMAP
7FC0
4040
4040
4040
4040
7FC0
3F98
7FE4
7FC8
8128
FFEC
ENDCHAR

STARTCHAR W
ENCODING 87
SWIDTH 790 0
DWIDTH 13 0
BBX 9 11 0 0
BITMAP
1C00
6300
C180
B680
8C80
8480
8480
8480
4480
2700
1C00
ENDCHAR

STARTCHAR X
ENCODING 88
SWIDTH 860 0
DWIDTH 14 0
BBX 10 11 0 0
BITMAP
FFC0
FFC0
FBC0
01C0
00C0
0040
00C0
01C0
FBC0
FFC0
FFC0
ENDCHAR

STARTCHAR Y
ENCODING 89
SWIDTH 804 0
DWIDTH 13 0
BBX 11 11 0 0
BITMAP
0400
0600
0500
F880
8340
FCA0
8340
F880
0500
0600
0400
ENDCHAR

STARTCHAR Z
ENCODING 90
SWIDTH 1220 0
DWIDTH 20 0
BBX 15 11 0 0
BITMAP
F000
4E00
2180
1060
081C
07FE
07FC
0FE0
1F00
3800
6000
ENDCHAR

STARTCHAR bracketleft
ENCODING 91
SWIDTH 1260 0
DWIDTH 20 0
BBX 15 7 0 1
BITMAP
0040
0030
000C
FFFE
000C
0030
0040
ENDCHAR

STARTCHAR backslash
ENCODING 92
SWIDTH 915 0
DWIDTH 15 0
BBX 11 11 0 0
BITMAP
1500
4E40
FFE0
2A80
B5A0
EEE0
B5A0
2A80
FFE0
4E40
1500
ENDCHAR

STARTCHAR bracketright
ENCODING 93
SWIDTH 1292 0
DWIDTH 21 0
BBX 16 6 0 2
BITMAP
1FFF
BFE0
BFF0
BFF0
BFF0
BFE0
ENDCHAR

STARTCHAR asciicircum
ENCODING 94
SWIDTH 940 0
DWIDTH 15 0
BBX 8 1 4 4
BITMAP
FF
ENDCHAR

STARTCHAR underscore
ENCODING 95
SWIDTH 1164 0
DWIDTH 19 0
BBX 13 1 2 4
BITMAP
FFF8
ENDCHAR

STARTCHAR grave
ENCODING 96
SWIDTH 720 0
DWIDTH 12 0
BBX 9 8 0 2
BITMAP
3E00
4100
8080
8080
8080
8080
4100
3E00
ENDCHAR

STARTCHAR a
ENCODING 97
SWIDTH 720 0
DWIDTH 12 0
BBX 9 8 0 2
BITMAP
3E00
7F00
FF80
FF80
FF80
FF80
7F00
3E00
ENDCHAR

STARTCHAR b
ENCODING 98
SWIDTH 1272 0
DWIDTH 20 0
BBX 16 7 1 2
BITMAP
001C
063E
4F7F
EF7F
4F7F
063E
001C
ENDCHAR

STARTCHAR c
ENCODING 99
SWIDTH 556 0
DWIDTH 9 0
BBX 5 11 0 0
BITMAP
C0
E0
F0
F8
F8
F8
F8
F8
F0
E0
C0
ENDCHAR

STARTCHAR d
ENCODING 100
SWIDTH 616 0
DWIDTH 10 0
BBX 6 12 1 0
BITMAP
80
60
10
08
0C
04
0C
18
38
F0
E0
C0
ENDCHAR

STARTCHAR e
ENCODING 101
SWIDTH 956 0
DWIDTH 15 0
BBX 12 11 1 0
BITMAP
0400
0300
00C0
0070
00E0
01C0
0380
0700
1E00
7C00
F800
ENDCHAR

STARTCHAR f
ENCODING 102
SWIDTH 932 0
DWIDTH 15 0
BBX 12 11 1 0
BITMAP
0600
0600
0F00
0D00
1D80
3C80
38C0
7840
7860
F030
FFF0
ENDCHAR

STARTCHAR g
ENCODING 103
SWIDTH 956 0
DWIDTH 15 0
BBX 15 8 0 2
BITMAP
0100
0380
07C0
0FE0
1FF0
3FF8
7FFC
FFFE
ENDCHAR

STARTCHAR h
ENCODING 104
SWIDTH 620 0
DWIDTH 10 0
BBX 7 10 1 1
BITMAP
10
38
38
7C
FE
FE
7C
38
38
10
ENDCHAR

STARTCHAR i
ENCODING 105
SWIDTH 620 0
DWIDTH 10 0
BBX 7 10 1 1
BITMAP
10
38
28
44
C2
C2
44
28
38
10
ENDCHAR

STARTCHAR j
ENCODING 106
SWIDTH 1023 0
DWIDTH 16 0
BBX 14 9 1 2
BITMAP
0300
0FC0
1FE0
7FF8
FFFC
7FF8
1FE0
0FC0
0300
ENDCHAR

STARTCHAR k
ENCODING 107
SWIDTH 930 0
DWIDTH 15 0
BBX 11 11 2 0
BITMAP
0400
0400
0400
0E00
3F80
FFE0
3F80
0E00
0400
0400
0400
ENDCHAR

STARTCHAR l
ENCODING 108
SWIDTH 548 0
DWIDTH 9 0
BBX 6 11 1 0
BITMAP
80
C0
E0
F0
F8
FC
F8
F0
E0
C0
80
ENDCHAR

STARTCHAR m
ENCODING 109
SWIDTH 896 0
DWIDTH 14 0
BBX 10 4 1 3
BITMAP
FFC0
FE00
7800
6000
ENDCHAR

STARTCHAR n
ENCODING 110
SWIDTH 1000 0
DWIDTH 16 0
BBX 13 7 2 2
BITMAP
C000
3800
0F80
01F8
00E0
0300
0C00
ENDCHAR

STARTCHAR o
ENCODING 111
SWIDTH 1000 0
DWIDTH 16 0
BBX 15 4 0 4
BITMAP
0180
01E0
FFF8
FFFE
ENDCHAR

STARTCHAR p
ENCODING 112
SWIDTH 1096 0
DWIDTH 18 0
BBX 14 5 1 3
BITMAP
1FFC
3FFC
3FF8
7FF0
FFF0
ENDCHAR

STARTCHAR q
ENCODING 113
SWIDTH 704 0
DWIDTH 11 0
BBX 9 13 1 0
BITMAP
0F80
0F00
0F00
1F00
1E00
3E00
3E00
3C00
7C00
7800
7800
F800
F000
ENDCHAR

STARTCHAR r
ENCODING 114
SWIDTH 1036 0
DWIDTH 17 0
BBX 15 12 0 0
BITMAP
0006
0006
000E
000C
001C
0018
0038
0038
0070
0070
3FF0
FFE0
ENDCHAR

STARTCHAR s
ENCODING 115
SWIDTH 1264 0
DWIDTH 20 0
BBX 15 12 3 0
BITMAP
0002
0002
0006
0006
000E
001E
003E
007E
00FE
03FE
0FFE
FFFE
ENDCHAR

STARTCHAR t
ENCODING 116
SWIDTH 884 0
DWIDTH 14 0
BBX 9 9 1 1
BITMAP
FF00
8100
8180
8180
8180
8180
8180
FF80
7F80
ENDCHAR

STARTCHAR u
ENCODING 117
SWIDTH 844 0
DWIDTH 14 0
BBX 8 8 1 2
BITMAP
FF
FF
FF
FF
FF
FF
FF
FF
ENDCHAR

STARTCHAR v
ENCODING 118
SWIDTH 1176 0
DWIDTH 19 0
BBX 13 6 1 2
BITMAP
FFF8
FFF8
FFF8
FFF8
FFF8
FFF8
ENDCHAR

STARTCHAR w
ENCODING 119
SWIDTH 1252 0
DWIDTH 20 0
BBX 15 7 1 2
BITMAP
FED6
FED6
FED6
FED6
FED6
FED6
FED6
ENDCHAR

STARTCHAR x
ENCODING 120
SWIDTH 1244 0
DWIDTH 20 0
BBX 17 9 0 1
BITMAP
000800
DDFC00
DDFE00
DDFF00
DDFF80
DDFF00
DDFE00
DDFC00
000800
ENDCHAR

STARTCHAR y
ENCODING 121
SWIDTH 864 0
DWIDTH 14 0
BBX 10 7 0 2
BITMAP
FF40
9F40
9F40
9F40
9F40
9F40
FF40
ENDCHAR

STARTCHAR z
ENCODING 122
SWIDTH 704 0
DWIDTH 11 0
BBX 8 7 0 2
BITMAP
FF
81
81
81
81
81
FF
ENDCHAR
ENDFONT
